<svg width="24" height="24" viewBox="0 0 24 24" fill="none" xmlns="http://www.w3.org/2000/svg">
<path d="M12 21.75C6.62391 21.75 2.25 17.3761 2.25 12C2.25 6.62391 6.62391 2.25 12 2.25C17.3761 2.25 21.75 6.62391 21.75 12C21.75 17.3761 17.3761 21.75 12 21.75ZM12 3.75C7.45312 3.75 3.75 7.45312 3.75 12C3.75 16.5469 7.45312 20.25 12 20.25C16.5469 20.25 20.25 16.5492 20.25 12C20.25 7.45078 16.5492 3.75 12 3.75Z" fill="white"/>
<path d="M18.7395 6.37479C18.7397 6.47934 18.7179 6.58277 18.6756 6.67837C18.6333 6.77398 18.5714 6.85963 18.4939 6.92979L6.24768 18.611C6.10005 18.742 5.90674 18.8095 5.70967 18.7989C5.5126 18.7883 5.32766 18.7005 5.19493 18.5544C5.06219 18.4084 4.99238 18.2159 5.00062 18.0187C5.00886 17.8215 5.09448 17.6355 5.23894 17.501L17.4851 5.81979C17.5926 5.72209 17.7262 5.65772 17.8696 5.6345C18.013 5.61129 18.1601 5.63022 18.293 5.689C18.4258 5.74778 18.5387 5.84388 18.618 5.96562C18.6973 6.08737 18.7395 6.22951 18.7395 6.37479Z" fill="white"/>
</svg>
