<svg width="24" height="24" viewBox="0 0 24 24" fill="none" xmlns="http://www.w3.org/2000/svg">
<g clip-path="url(#clip0_221_3193)">
<path d="M21.6724 13.0892C21.6587 12.1441 21.113 7.65306 20.847 6.95595C20.6764 6.50685 20.3149 5.68238 19.6533 5.18636C18.8006 4.54958 18.1048 4.42893 17.2181 4.41552C16.5973 4.39541 6.65189 5.66227 5.44452 6.10467C4.54411 6.43312 3.84152 6.86211 3.289 7.40505C2.38177 8.29654 2.21124 9.16123 2.35448 10.6828C2.48409 12.0636 3.13211 16.635 3.45271 17.5802C3.80742 18.6258 4.46226 19.4302 5.54002 19.5441C8.8347 19.8994 9.61233 18.0896 17.2726 18.103C19.5919 18.1097 20.7447 17.0975 21.229 16.2128C21.7883 15.1738 21.6792 13.8064 21.6724 13.0892Z" fill="#FF0000"/>
<path d="M16.9726 4.75743H16.9794C17.8253 4.77083 18.4869 4.88478 19.3055 5.49475C19.9399 5.97066 20.2877 6.75491 20.4446 7.1839C20.697 7.8475 21.2154 12.1307 21.2291 13.0356C21.2359 13.726 21.345 15.0264 20.8062 16.0184C20.3491 16.8563 19.2509 17.8215 17.0476 17.8215C17.0408 17.8215 17.034 17.8215 17.034 17.8215C16.9999 17.8215 16.9658 17.8215 16.9317 17.8215C10.3628 17.8215 9.15541 19.2358 6.63153 19.2358C6.38597 19.2358 6.11993 19.2224 5.84026 19.1956C4.81025 19.0817 4.18951 18.3175 3.84845 17.3255C3.54149 16.4206 2.92757 12.057 2.79797 10.7432C2.66154 9.28864 2.82526 8.46417 3.68474 7.6196C4.20998 7.09676 4.88528 6.69458 5.74476 6.37954C6.89074 5.95055 16.2973 4.75743 16.9726 4.75743ZM16.9726 3.99999C16.5497 3.99999 13.7666 4.34184 11.4337 4.65688C9.10084 4.97192 6.18133 5.40761 5.48556 5.66233C4.52375 6.01088 3.75977 6.47339 3.15268 7.07665C2.04081 8.17594 1.90438 9.32215 2.04081 10.8169C2.14995 11.9765 2.77069 16.5278 3.12539 17.5735C3.60288 18.9811 4.5374 19.8257 5.75159 19.9531C6.05172 19.9866 6.33822 20 6.62471 20C7.68883 20 8.53467 19.7721 9.51693 19.5107C11.0585 19.0951 12.9753 18.5857 16.9317 18.5857H17.0272H17.0476C18.0163 18.5857 20.3901 18.3712 21.4678 16.3871C22.0476 15.328 22.0135 14.0343 21.9931 13.2635C21.9931 13.1764 21.9931 13.0959 21.9862 13.0289C21.9726 12.1106 21.4474 7.70673 21.154 6.92249C20.813 6.01088 20.3423 5.32718 19.7557 4.88478C18.8007 4.16756 17.9958 4.0134 16.9931 3.99329H16.9862H16.9726V3.99999Z" fill="#282828"/>
<path d="M14.9807 11.8559C14.9534 11.8693 14.9329 11.8894 14.9056 11.9028C14.7146 12.0302 14.5236 12.1642 14.3326 12.2916C13.8893 12.5932 11.3108 14.3494 11.3108 14.3494C11.0925 14.517 10.6764 14.7784 10.5196 14.6913C10.3627 14.6041 10.3081 14.0411 10.2672 13.7662L10.2603 13.7059C10.2126 13.3775 9.84424 10.2271 9.79649 9.87852C9.78285 9.77797 9.72146 9.42271 9.83742 9.33557C9.96021 9.24844 10.2603 9.34898 10.3627 9.3825C10.9561 9.57018 13.937 10.6091 14.8647 11.0783C14.892 11.0918 14.9193 11.1052 14.9534 11.1186C15.083 11.1722 15.2672 11.2526 15.274 11.4738C15.2672 11.6816 15.1103 11.7755 14.9807 11.8559Z" fill="white"/>
<path d="M10.2128 9.80476C11.2496 10.1533 13.6439 11.0046 14.7694 11.5006C14.633 11.5945 14.4965 11.6816 14.3601 11.7754C13.8349 12.1307 10.7789 14.2153 10.7789 14.2153L10.7653 14.2287L10.7517 14.2421C10.7448 14.2153 10.7448 14.1952 10.7448 14.1751L10.7312 14.0544L10.7176 13.9807C10.6766 13.6992 10.4311 11.6347 10.2878 10.3946C10.2537 10.1667 10.2332 9.96563 10.2128 9.80476ZM9.63297 8.87305C9.56476 8.87305 9.51019 8.88645 9.46926 8.91326C9.33284 9.00711 9.40787 9.4361 9.42151 9.55005C9.46926 9.95893 9.91265 13.6925 9.96722 14.0813L9.97404 14.155C10.0218 14.4834 10.0832 15.1537 10.2742 15.2543C10.3015 15.2677 10.3287 15.2744 10.3629 15.2744C10.588 15.2744 10.9836 15.0197 11.2087 14.8454C11.2087 14.8454 14.2646 12.7675 14.7899 12.4122C15.015 12.258 15.2469 12.1039 15.472 11.9497C15.4993 11.9296 15.5266 11.9162 15.5607 11.8961C15.7176 11.8022 15.9086 11.6883 15.9017 11.4403C15.8949 11.1789 15.6835 11.085 15.5266 11.0247C15.4925 11.0113 15.4584 10.9912 15.4242 10.9778C14.326 10.4281 10.7926 9.19479 10.09 8.97359C10.0013 8.94008 9.79669 8.87305 9.63297 8.87305Z" fill="#282828"/>
</g>
<defs>
<clipPath id="clip0_221_3193">
<rect width="20" height="16" fill="white" transform="translate(2 4)"/>
</clipPath>
</defs>
</svg>
